ffmpeg version 2.1.1 Copyright (c) 2000-2013 the FFmpeg developers
  built on Dec 20 2014 10:34:55 with gcc 4.7 (Debian 4.7.2-5)
  configuration: --enable-gpl --enable-nonfree --enable-postproc --enable-pthreads --enable-x11grab --enable-swscale --enable-version3 --enable-shared --disable-yasm --enable-filter=movie --enable-frei0r --enable-libdc1394 --enable-libfaac --enable-libmp3lame --enable-libx264 --enable-libxvid --enable-libfreetype --enable-libvorbis --enable-libgsm --enable-libopencore-amrnb --enable-libopencore-amrwb --enable-libopenjpeg --enable-librtmp --enable-libschroedinger --enable-libspeex --enable-libtheora --enable-libvpx --enable-libvo-amrwbenc --enable-libvo-aacenc --enable-libaacplus --enable-libxavs --enable-bzlib --enable-openssl --enable-gnutls --enable-openal --enable-libv4l2 --enable-libpulse --enable-libmodplug --enable-libass --enable-libcdio --enable-vdpau --enable-libbluray
  libavutil      52. 48.101 / 52. 48.101
  libavcodec     55. 39.101 / 55. 39.101
  libavformat    55. 19.104 / 55. 19.104
  libavdevice    55.  5.100 / 55.  5.100
  libavfilter     3. 90.100 /  3. 90.100
  libswscale      2.  5.101 /  2.  5.101
  libswresample   0. 17.104 /  0. 17.104
  libpostproc    52.  3.100 / 52.  3.100
Input #0, mov,mp4,m4a,3gp,3g2,mj2, from '/var/www/business-supermarket.com/web/www/temp/0026346001421762668.mp4':
  Metadata:
    major_brand     : isom
    minor_version   : 512
    compatible_brands: isomiso2avc1mp41
    encoder         : Lavf55.19.104
  Duration: 00:06:36.86, start: 0.023220, bitrate: 530 kb/s
    Stream #0:0(und): Video: h264 (Constrained Baseline) (avc1 / 0x31637661), yuv420p, 320x240, 462 kb/s, 25 fps, 25 tbr, 12800 tbn, 50 tbc (default)
    Metadata:
      handler_name    : VideoHandler
    Stream #0:1(und): Audio: aac (mp4a / 0x6134706D), 44100 Hz, stereo, fltp, 63 kb/s (default)
    Metadata:
      handler_name    : SoundHandler
Please use -b:a or -b:v, -b is ambiguous
Output #0, flv, to '/var/www/business-supermarket.com/web/www/upload/users/jag_1/videos/0026346001421762668.flv':
  Metadata:
    major_brand     : isom
    minor_version   : 512
    compatible_brands: isomiso2avc1mp41
    encoder         : Lavf55.19.104
    Stream #0:0(und): Video: flv1 (flv) ([2][0][0][0] / 0x0002), yuv420p, 512x384, q=2-31, 1000 kb/s, 1k tbn, 30 tbc (default)
    Metadata:
      handler_name    : VideoHandler
    Stream #0:1(und): Audio: mp3 (libmp3lame) ([2][0][0][0] / 0x0002), 44100 Hz, stereo, fltp, 128 kb/s (default)
    Metadata:
      handler_name    : SoundHandler
Stream mapping:
  Stream #0:0 -> #0:0 (h264 -> flv)
  Stream #0:1 -> #0:1 (aac -> libmp3lame)
Press [q] to stop, [?] for help
frame=  122 fps=0.0 q=2.0 size=     542kB time=00:00:04.93 bitrate= 900.1kbits/s    frame=  230 fps=226 q=2.0 size=    1017kB time=00:00:09.27 bitrate= 898.2kbits/s    frame=  304 fps=200 q=2.0 size=    1666kB time=00:00:12.22 bitrate=1116.6kbits/s    frame=  383 fps=190 q=3.5 size=    2286kB time=00:00:15.38 bitrate=1217.4kbits/s    frame=  470 fps=186 q=2.5 size=    2777kB time=00:00:18.85 bitrate=1206.2kbits/s    frame=  558 fps=184 q=2.8 size=    3281kB time=00:00:22.38 bitrate=1200.7kbits/s    frame=  637 fps=181 q=4.9 size=    3774kB time=00:00:25.54 bitrate=1210.4kbits/s    frame=  712 fps=177 q=4.0 size=    4144kB time=00:00:28.52 bitrate=1190.1kbits/s    frame=  788 fps=174 q=9.0 size=    4566kB time=00:00:31.58 bitrate=1184.5kbits/s    frame=  847 fps=168 q=13.7 size=    4981kB time=00:00:33.95 bitrate=1201.7kbits/s    frame=  938 fps=169 q=2.0 size=    5293kB time=00:00:37.56 bitrate=1154.3kbits/s    frame= 1026 fps=170 q=2.7 size=    5662kB time=00:00:41.09 bitrate=1128.8kbits/s    frame= 1099 fps=168 q=3.7 size=    6192kB time=00:00:44.01 bitrate=1152.4kbits/s    frame= 1171 fps=166 q=3.5 size=    6627kB time=00:00:46.91 bitrate=1157.2kbits/s    frame= 1250 fps=166 q=2.9 size=    7081kB time=00:00:50.07 bitrate=1158.5kbits/s    frame= 1323 fps=164 q=4.4 size=    7493kB time=00:00:53.00 bitrate=1158.1kbits/s    frame= 1403 fps=164 q=4.3 size=    7923kB time=00:00:56.18 bitrate=1155.1kbits/s    frame= 1492 fps=165 q=3.6 size=    8434kB time=00:00:59.71 bitrate=1157.0kbits/s    frame= 1585 fps=166 q=2.4 size=    8931kB time=00:01:03.44 bitrate=1153.1kbits/s    frame= 1661 fps=161 q=3.4 size=    9317kB time=00:01:06.50 bitrate=1147.6kbits/s    frame= 1682 fps=156 q=4.4 size=    9450kB time=00:01:07.34 bitrate=1149.6kbits/s    frame= 1765 fps=156 q=2.5 size=    9935kB time=00:01:10.65 bitrate=1151.9kbits/s    frame= 1855 fps=157 q=2.6 size=   10410kB time=00:01:14.23 bitrate=1148.7kbits/s    frame= 1942 fps=158 q=2.3 size=   10871kB time=00:01:17.73 bitrate=1145.6kbits/s    frame= 1968 fps=154 q=4.1 size=   11027kB time=00:01:18.78 bitrate=1146.6kbits/s    frame= 2049 fps=154 q=5.0 size=   11510kB time=00:01:21.99 bitrate=1149.9kbits/s    frame= 2092 fps=148 q=6.0 size=   11771kB time=00:01:23.72 bitrate=1151.8kbits/s    frame= 2187 fps=149 q=2.2 size=   12231kB time=00:01:27.53 bitrate=1144.6kbits/s    frame= 2270 fps=150 q=3.9 size=   12664kB time=00:01:30.85 bitrate=1141.9kbits/s    frame= 2361 fps=151 q=2.0 size=   13115kB time=00:01:34.53 bitrate=1136.5kbits/s    frame= 2461 fps=152 q=1.6 size=   13662kB time=00:01:38.48 bitrate=1136.4kbits/s    frame= 2547 fps=153 q=2.0 size=   14010kB time=00:01:41.95 bitrate=1125.7kbits/s    frame= 2647 fps=154 q=2.0 size=   14361kB time=00:01:45.95 bitrate=1110.4kbits/s    frame= 2759 fps=156 q=2.0 size=   14701kB time=00:01:50.41 bitrate=1090.7kbits/s    frame= 2849 fps=157 q=2.0 size=   15155kB time=00:01:54.02 bitrate=1088.8kbits/s    frame= 2872 fps=153 q=2.0 size=   15307kB time=00:01:54.91 bitrate=1091.3kbits/s    frame= 2961 fps=153 q=2.0 size=   15935kB time=00:01:58.48 bitrate=1101.7kbits/s    frame= 3053 fps=154 q=2.0 size=   16470kB time=00:02:02.17 bitrate=1104.4kbits/s    frame= 3136 fps=154 q=2.0 size=   16930kB time=00:02:05.49 bitrate=1105.2kbits/s    frame= 3220 fps=155 q=2.3 size=   17605kB time=00:02:08.86 bitrate=1119.2kbits/s    frame= 3310 fps=155 q=2.0 size=   18314kB time=00:02:12.43 bitrate=1132.8kbits/s    frame= 3393 fps=156 q=2.3 size=   18946kB time=00:02:15.78 bitrate=1143.0kbits/s    frame= 3481 fps=156 q=1.6 size=   19467kB time=00:02:19.30 bitrate=1144.7kbits/s    frame= 3567 fps=156 q=2.5 size=   19918kB time=00:02:22.73 bitrate=1143.2kbits/s    frame= 3654 fps=157 q=3.0 size=   20395kB time=00:02:26.20 bitrate=1142.8kbits/s    frame= 3736 fps=157 q=5.9 size=   20945kB time=00:02:29.52 bitrate=1147.5kbits/s    frame= 3815 fps=155 q=5.6 size=   21376kB time=00:02:32.68 bitrate=1146.9kbits/s    frame= 3906 fps=156 q=5.3 size=   21868kB time=00:02:36.29 bitrate=1146.2kbits/s    frame= 3993 fps=156 q=5.5 size=   22345kB time=00:02:39.78 bitrate=1145.6kbits/s    frame= 4078 fps=156 q=4.2 size=   22816kB time=00:02:43.18 bitrate=1145.4kbits/s    frame= 4165 fps=157 q=2.7 size=   23259kB time=00:02:46.65 bitrate=1143.3kbits/s    frame= 4248 fps=157 q=4.1 size=   23710kB time=00:02:50.00 bitrate=1142.5kbits/s    frame= 4288 fps=155 q=3.6 size=   23939kB time=00:02:51.57 bitrate=1143.0kbits/s    frame= 4377 fps=156 q=2.5 size=   24427kB time=00:02:55.14 bitrate=1142.5kbits/s    frame= 4465 fps=156 q=6.5 size=   24942kB time=00:02:58.64 bitrate=1143.7kbits/s    frame= 4557 fps=157 q=4.0 size=   25434kB time=00:03:02.35 bitrate=1142.6kbits/s    frame= 4655 fps=157 q=1.6 size=   25919kB time=00:03:06.27 bitrate=1139.8kbits/s    frame= 4758 fps=158 q=2.0 size=   26334kB time=00:03:10.37 bitrate=1133.1kbits/s    frame= 4876 fps=159 q=2.0 size=   26799kB time=00:03:15.10 bitrate=1125.2kbits/s    frame= 5016 fps=161 q=2.0 size=   27109kB time=00:03:20.72 bitrate=1106.4kbits/s    frame= 5141 fps=163 q=2.0 size=   27584kB time=00:03:25.71 bitrate=1098.5kbits/s    frame= 5243 fps=163 q=2.0 size=   28261kB time=00:03:29.78 bitrate=1103.6kbits/s    frame= 5352 fps=159 q=2.0 size=   28679kB time=00:03:34.12 bitrate=1097.2kbits/s    frame= 5464 fps=160 q=2.0 size=   29221kB time=00:03:38.61 bitrate=1095.0kbits/s    frame= 5576 fps=161 q=2.0 size=   29563kB time=00:03:43.11 bitrate=1085.5kbits/s    frame= 5688 fps=162 q=2.0 size=   29905kB time=00:03:47.57 bitrate=1076.5kbits/s    frame= 5813 fps=163 q=2.0 size=   30314kB time=00:03:52.56 bitrate=1067.8kbits/s    frame= 5934 fps=164 q=2.0 size=   30691kB time=00:03:57.42 bitrate=1059.0kbits/s    frame= 6060 fps=165 q=2.0 size=   31073kB time=00:04:02.46 bitrate=1049.8kbits/s    frame= 6184 fps=166 q=2.0 size=   31482kB time=00:04:07.43 bitrate=1042.3kbits/s    frame= 6294 fps=167 q=2.0 size=   31822kB time=00:04:11.81 bitrate=1035.2kbits/s    frame= 6409 fps=168 q=2.0 size=   32167kB time=00:04:16.41 bitrate=1027.7kbits/s    frame= 6547 fps=169 q=2.0 size=   32613kB time=00:04:21.95 bitrate=1019.9kbits/s    frame= 6684 fps=171 q=2.0 size=   33030kB time=00:04:27.41 bitrate=1011.9kbits/s    frame= 6823 fps=172 q=2.0 size=   33480kB time=00:04:32.97 bitrate=1004.7kbits/s    frame= 6958 fps=173 q=2.0 size=   33896kB time=00:04:38.38 bitrate= 997.5kbits/s    frame= 7095 fps=174 q=2.0 size=   34344kB time=00:04:43.89 bitrate= 991.0kbits/s    frame= 7233 fps=176 q=2.0 size=   34763kB time=00:04:49.38 bitrate= 984.1kbits/s    frame= 7360 fps=177 q=2.0 size=   35174kB time=00:04:54.45 bitrate= 978.6kbits/s    frame= 7490 fps=178 q=1.6 size=   35588kB time=00:04:59.65 bitrate= 972.9kbits/s    frame= 7617 fps=178 q=2.0 size=   35971kB time=00:05:04.74 bitrate= 967.0kbits/s    frame= 7742 fps=179 q=1.6 size=   36380kB time=00:05:09.73 bitrate= 962.2kbits/s    frame= 7882 fps=180 q=2.0 size=   36802kB time=00:05:15.34 bitrate= 956.0kbits/s    frame= 8008 fps=181 q=2.0 size=   37211kB time=00:05:20.39 bitrate= 951.4kbits/s    frame= 8137 fps=182 q=2.0 size=   37595kB time=00:05:25.53 bitrate= 946.1kbits/s    frame= 8266 fps=183 q=2.0 size=   38008kB time=00:05:30.70 bitrate= 941.5kbits/s    frame= 8380 fps=183 q=2.0 size=   38380kB time=00:05:35.28 bitrate= 937.8kbits/s    frame= 8503 fps=184 q=2.0 size=   38760kB time=00:05:40.16 bitrate= 933.4kbits/s    frame= 8628 fps=185 q=2.0 size=   39141kB time=00:05:45.18 bitrate= 928.9kbits/s    frame= 8750 fps=185 q=1.6 size=   39549kB time=00:05:50.06 bitrate= 925.5kbits/s    frame= 8873 fps=186 q=2.0 size=   39929kB time=00:05:54.97 bitrate= 921.5kbits/s    frame= 9007 fps=187 q=2.0 size=   40346kB time=00:06:00.35 bitrate= 917.2kbits/s    frame= 9144 fps=188 q=2.0 size=   40764kB time=00:06:05.84 bitrate= 912.8kbits/s    frame= 9273 fps=188 q=2.0 size=   41178kB time=00:06:10.98 bitrate= 909.3kbits/s    frame= 9402 fps=189 q=2.0 size=   41591kB time=00:06:16.13 bitrate= 905.8kbits/s    frame= 9538 fps=190 q=2.0 size=   42009kB time=00:06:21.57 bitrate= 901.9kbits/s    frame= 9679 fps=191 q=2.0 size=   42459kB time=00:06:27.21 bitrate= 898.3kbits/s    frame= 9823 fps=192 q=2.0 size=   42912kB time=00:06:32.98 bitrate= 894.5kbits/s    frame= 9921 fps=192 q=2.0 Lsize=   43438kB time=00:06:36.87 bitrate= 896.6kbits/s    
video:36844kB audio:6201kB subtitle:0 global headers:0kB muxing overhead 0.912529%
